<svg width="80" height="19" viewBox="0 0 80 19" fill="none" xmlns="http://www.w3.org/2000/svg">
<path d="M78.7692 13.6606C79.1633 13.5332 79.5861 13.7493 79.7136 14.1434C79.8411 14.5375 79.6249 14.9604 79.2308 15.0878L78.7692 13.6606ZM0.544045 7.49135C0.215167 7.23953 0.152696 6.76878 0.404512 6.4399L4.5081 1.08051C4.75992 0.751637 5.23067 0.689165 5.55955 0.940981C5.88842 1.1928 5.95089 1.66355 5.69908 1.99242L2.05144 6.75632L6.81534 10.404C7.14422 10.6558 7.20669 11.1265 6.95488 11.4554C6.70306 11.7843 6.23231 11.8468 5.90343 11.5949L0.544045 7.49135ZM79.2308 15.0878C69.15 18.3487 61.9758 19.1536 56.1724 18.5794C50.3652 18.0048 45.9941 16.0535 41.5547 13.929C37.1122 11.8031 32.604 9.50607 26.4049 8.09454C20.2122 6.68448 12.298 6.15311 1.09866 7.63934L0.901335 6.15238C12.2432 4.64723 20.3405 5.1753 26.7379 6.63198C33.1288 8.08718 37.7892 10.4642 42.2022 12.576C46.6183 14.6893 50.7896 16.5395 56.3201 17.0867C61.8545 17.6343 68.8133 16.8811 78.7692 13.6606L79.2308 15.0878Z" fill="#3D3D3D"/>
</svg>
