<svg width="700" height="364" viewBox="0 0 700 364" fill="none" xmlns="http://www.w3.org/2000/svg">
<g clip-path="url(#clip0_290_1165)">
<path d="M376.99 356.061L367.756 284.497L367.749 284.386C367.751 282.319 368.573 280.337 370.035 278.876C371.497 277.414 373.478 276.592 375.546 276.589H465.645C467.712 276.592 469.694 277.414 471.155 278.876C472.617 280.337 473.439 282.319 473.442 284.386L466.723 336.477L464.2 356.061C464.183 358.118 463.354 360.086 461.894 361.535C460.434 362.984 458.461 363.798 456.404 363.801H384.787C382.729 363.798 380.756 362.984 379.296 361.535C377.836 360.086 377.007 358.118 376.99 356.061ZM465.645 278.322H375.546C373.947 278.324 372.414 278.956 371.278 280.081C370.143 281.206 369.497 282.734 369.481 284.333L376.186 336.256L378.715 355.892L378.722 356.004C378.724 357.612 379.364 359.153 380.5 360.29C381.637 361.427 383.179 362.066 384.787 362.068H456.404C458.011 362.066 459.553 361.427 460.69 360.29C461.827 359.153 462.466 357.612 462.468 356.004L471.709 284.333C471.693 282.734 471.047 281.206 469.912 280.081C468.776 278.956 467.243 278.324 465.645 278.322Z" fill="#3F3D56"/>
<path d="M420.595 298.248C447.389 298.248 469.11 294.628 469.11 290.162C469.11 285.696 447.389 282.076 420.595 282.076C393.801 282.076 372.08 285.696 372.08 290.162C372.08 294.628 393.801 298.248 420.595 298.248Z" fill="#F2F2F2"/>
<path d="M416.395 286.523C423.099 270.083 426.516 252.489 426.453 234.735C426.437 216.974 423.075 199.376 416.543 182.86C412.866 173.601 408.155 164.788 402.501 156.586C401.711 155.44 403.58 154.359 404.365 155.497C414.551 170.388 421.708 187.137 425.427 204.792C429.179 222.35 429.607 240.455 426.689 258.171C425.049 268.091 422.294 277.795 418.476 287.097C417.955 288.364 415.866 287.809 416.395 286.523Z" fill="#CCCCCC"/>
<path d="M425.354 207.685C428.298 204.495 429.1 200.056 429.077 195.849C429.05 190.854 427.822 185.963 427.587 180.982C427.376 176.525 428.052 172.018 430.656 168.292C432.897 165.085 436.432 162.616 440.489 162.844C449.142 163.329 453.17 173.281 454.419 180.547C456.105 189.992 454.427 199.729 449.676 208.064C444.925 216.399 437.402 222.805 428.416 226.166C427.117 226.662 426.555 224.576 427.842 224.085C435.775 221.064 442.501 215.531 446.995 208.329C451.489 201.128 453.503 192.654 452.731 184.201C452.465 180.036 451.374 175.965 449.523 172.224C447.863 169.084 445.281 165.967 441.655 165.164C438.083 164.372 434.733 166.353 432.668 169.173C430.065 172.728 429.522 177.025 429.763 181.324C430.277 190.512 433.997 201.5 426.881 209.211C425.936 210.234 424.413 208.704 425.354 207.685Z" fill="#CCCCCC"/>
<path d="M423.672 247.206C416.355 242.431 415.624 233.092 414.701 225.226C414.179 220.773 413.422 216.039 410.689 212.346C408.441 209.309 404.632 206.699 400.685 207.406C397.207 208.028 394.854 210.901 393.575 214.024C392.23 217.645 391.712 221.52 392.058 225.366C392.595 234.126 396.022 242.461 401.804 249.065C404.639 252.423 407.979 255.319 411.706 257.648C415.528 259.943 419.795 261.398 424.223 261.915C425.586 262.076 425.602 264.236 424.223 264.073C420.022 263.607 415.945 262.364 412.198 260.406C408.545 258.412 405.225 255.862 402.355 252.848C395.798 246.289 391.539 237.785 390.216 228.605C389.555 224.424 389.703 220.156 390.651 216.03C391.574 212.437 393.416 208.833 396.594 206.75C398.3 205.699 400.27 205.156 402.274 205.183C404.277 205.211 406.231 205.808 407.908 206.905C411.784 209.264 414.226 213.188 415.464 217.473C416.983 222.733 416.877 228.269 417.997 233.602C418.939 238.079 420.778 242.743 424.761 245.343C425.92 246.099 424.84 247.968 423.672 247.206V247.206Z" fill="#CCCCCC"/>
<path d="M354.769 122.414C354.769 115.218 356.903 108.183 360.901 102.199C364.899 96.2157 370.582 91.552 377.23 88.798C383.879 86.044 391.195 85.3235 398.253 86.7274C405.311 88.1314 411.795 91.5969 416.884 96.6856C421.972 101.774 425.438 108.258 426.842 115.316C428.246 122.374 427.525 129.69 424.771 136.339C422.017 142.988 417.353 148.67 411.37 152.668C405.386 156.667 398.351 158.801 391.155 158.801C381.508 158.79 372.259 154.953 365.438 148.131C358.617 141.31 354.779 132.061 354.769 122.414ZM356.501 122.414C356.501 129.268 358.534 135.968 362.341 141.667C366.149 147.366 371.561 151.807 377.893 154.43C384.225 157.053 391.193 157.739 397.915 156.402C404.637 155.065 410.812 151.765 415.658 146.918C420.505 142.072 423.805 135.897 425.142 129.175C426.479 122.453 425.793 115.485 423.17 109.153C420.547 102.821 416.106 97.4089 410.407 93.6011C404.708 89.7934 398.008 87.761 391.155 87.761C381.967 87.7714 373.159 91.4257 366.662 97.9222C360.166 104.419 356.512 113.227 356.501 122.414Z" fill="#3F3D56"/>
<path d="M370.362 112.45L366.031 111.583C366.031 111.583 369.669 115.655 370.362 115.915C370.427 116.78 370.427 117.649 370.362 118.514C378.679 154.207 409.348 138.44 409.348 138.44C398.172 138.7 397.219 134.108 397.219 134.108C403.716 133.155 405.016 128.91 405.016 128.91C404.433 129.218 403.757 129.299 403.118 129.139C402.478 128.979 401.92 128.589 401.551 128.044C408.568 126.224 407.615 119.38 407.615 119.38C406.364 120.283 404.902 120.85 403.37 121.026C404.15 120.073 410.734 112.19 406.749 108.118C406.749 108.118 401.897 116.781 389.162 117.561L388.296 117.388C388.443 116.764 388.501 116.122 388.469 115.482C388.469 113.069 387.51 110.756 385.805 109.05C384.099 107.344 381.785 106.385 379.372 106.385C373.308 106.385 372.008 109.851 372.008 109.851L367.677 107.252C367.763 107.252 368.197 111.583 370.362 112.45Z" fill="#4C63B6"/>
<path d="M603.392 363.801H549.679C548.081 363.799 546.549 363.167 545.414 362.043C544.278 360.919 543.632 359.392 543.615 357.795L536.684 304.024C536.686 302.416 537.325 300.874 538.462 299.737C539.599 298.601 541.141 297.961 542.748 297.959H610.323C611.93 297.961 613.472 298.6 614.609 299.737C615.746 300.874 616.385 302.416 616.387 304.024L616.38 304.134L609.456 357.795C609.439 359.392 608.793 360.919 607.658 362.043C606.522 363.167 604.99 363.799 603.392 363.801ZM538.417 303.97L545.347 357.736C545.349 358.885 545.806 359.986 546.618 360.798C547.43 361.61 548.531 362.067 549.679 362.068H603.392C604.54 362.067 605.641 361.61 606.454 360.798C607.266 359.986 607.722 358.885 607.724 357.736L607.731 357.625L614.654 303.97C614.639 302.831 614.176 301.744 613.365 300.943C612.555 300.143 611.462 299.693 610.323 299.692H542.748C541.609 299.693 540.516 300.143 539.706 300.943C538.895 301.744 538.432 302.831 538.417 303.97Z" fill="#3F3D56"/>
<path d="M576.536 314.42C596.631 314.42 612.922 311.704 612.922 308.355C612.922 305.006 596.631 302.291 576.536 302.291C556.44 302.291 540.149 305.006 540.149 308.355C540.149 311.704 556.44 314.42 576.536 314.42Z" fill="#F2F2F2"/>
<path d="M577.522 302.143C572.242 289.192 569.547 275.333 569.589 261.347C569.601 247.356 572.248 233.492 577.393 220.48C580.292 213.189 584.004 206.248 588.459 199.789C589.41 198.408 587.158 197.107 586.215 198.477C578.159 210.261 572.493 223.51 569.538 237.475C566.558 251.384 566.203 265.728 568.492 279.767C569.786 287.678 571.975 295.417 575.016 302.834C575.643 304.36 578.159 303.692 577.522 302.143V302.143Z" fill="#CCCCCC"/>
<path d="M570.326 239.634C565.02 233.816 568.626 224.785 568.722 217.939C568.902 214.466 567.912 211.033 565.911 208.189C564.042 205.709 561.199 203.866 557.991 204.068C550.976 204.509 547.648 212.396 546.615 218.345C545.241 225.93 546.578 233.755 550.39 240.454C554.203 247.152 560.25 252.297 567.472 254.988C569.035 255.588 569.711 253.076 568.163 252.482C562.001 250.125 556.777 245.82 553.284 240.223C549.792 234.625 548.222 228.041 548.813 221.47C549.013 218.185 549.877 214.976 551.355 212.036C552.64 209.651 554.642 207.233 557.454 206.732C560.243 206.236 562.737 208.003 564.196 210.25C566.054 213.112 566.287 216.453 566.036 219.778C565.487 227.033 562.953 235.403 568.489 241.472C569.618 242.711 571.452 240.869 570.326 239.634V239.634Z" fill="#CCCCCC"/>
<path d="M571.566 271.572C577.127 267.9 578.071 261.028 578.751 254.929C579.147 251.368 579.572 247.532 581.573 244.458C583.162 242.016 585.984 239.812 589.051 240.117C595.18 240.725 596.135 249.076 595.887 253.799C595.496 260.634 592.841 267.145 588.34 272.304C583.75 277.573 577.97 281.515 570.905 282.365C569.265 282.563 569.245 285.164 570.905 284.964C585.014 283.266 596.242 270.608 598.185 256.808C599.033 250.79 598.653 242.685 593.068 238.894C591.728 238.035 590.177 237.561 588.585 237.524C586.994 237.486 585.422 237.886 584.043 238.68C580.954 240.473 578.664 243.375 577.637 246.796C576.233 251.021 576.326 255.524 575.486 259.859C574.793 263.438 573.429 267.232 570.254 269.328C568.864 270.246 570.165 272.498 571.566 271.572H571.566Z" fill="#CCCCCC"/>
<path d="M594.714 199.807C587.517 199.807 580.482 197.673 574.499 193.675C568.515 189.677 563.851 183.994 561.097 177.346C558.343 170.697 557.623 163.381 559.027 156.323C560.431 149.264 563.896 142.781 568.985 137.692C574.074 132.604 580.557 129.138 587.615 127.734C594.673 126.33 601.989 127.051 608.638 129.805C615.287 132.559 620.97 137.222 624.968 143.206C628.966 149.19 631.1 156.225 631.1 163.421C631.089 173.068 627.252 182.317 620.431 189.138C613.609 195.959 604.361 199.796 594.714 199.807ZM594.714 128.768C587.86 128.768 581.16 130.8 575.461 134.608C569.763 138.416 565.321 143.828 562.698 150.16C560.075 156.492 559.389 163.46 560.726 170.182C562.063 176.904 565.364 183.078 570.21 187.925C575.056 192.771 581.231 196.072 587.953 197.409C594.675 198.746 601.643 198.06 607.975 195.437C614.307 192.814 619.719 188.372 623.527 182.674C627.335 176.975 629.367 170.275 629.367 163.421C629.357 154.234 625.703 145.425 619.206 138.929C612.709 132.432 603.901 128.778 594.714 128.768Z" fill="#3F3D56"/>
<path fill-rule="evenodd" clip-rule="evenodd" d="M618.5 163.564C618.499 159.019 617.196 154.568 614.745 150.741C612.294 146.913 608.797 143.867 604.668 141.965C600.54 140.063 595.953 139.383 591.451 140.007C586.948 140.631 582.719 142.531 579.263 145.484C575.807 148.437 573.269 152.318 571.951 156.668C570.632 161.018 570.587 165.655 571.822 170.029C573.057 174.404 575.519 178.333 578.917 181.352C582.316 184.371 586.508 186.352 590.997 187.063V170.442H584.956V163.564H590.997V158.323C590.997 152.362 594.549 149.067 599.982 149.067C601.766 149.092 603.546 149.247 605.307 149.532V155.386H602.307C599.353 155.386 598.43 157.219 598.43 159.103V163.565H605.026L603.973 170.443H598.43V187.065C604.025 186.178 609.121 183.325 612.8 179.017C616.479 174.709 618.501 169.229 618.5 163.564V163.564Z" fill="#4C63B6"/>
<path d="M700 362.934C699.999 363.164 699.908 363.384 699.745 363.546C699.583 363.709 699.363 363.8 699.134 363.801H0.866337C0.63657 363.801 0.416213 363.709 0.253743 363.547C0.0912738 363.385 0 363.164 0 362.934C0 362.705 0.0912738 362.484 0.253743 362.322C0.416213 362.159 0.63657 362.068 0.866337 362.068H699.134C699.363 362.069 699.583 362.16 699.745 362.323C699.908 362.485 699.999 362.705 700 362.934Z" fill="#3F3D56"/>
<path d="M165.892 363.801H112.179C110.581 363.799 109.049 363.167 107.914 362.043C106.778 360.919 106.132 359.392 106.115 357.795L99.1841 304.024C99.1859 302.416 99.8254 300.874 100.962 299.737C102.099 298.601 103.641 297.961 105.248 297.959H172.823C174.431 297.961 175.972 298.6 177.109 299.737C178.246 300.874 178.885 302.416 178.887 304.024L178.88 304.134L171.956 357.795C171.939 359.392 171.293 360.919 170.158 362.043C169.022 363.167 167.49 363.799 165.892 363.801ZM100.917 303.97L107.847 357.736C107.849 358.885 108.306 359.986 109.118 360.798C109.93 361.61 111.031 362.067 112.179 362.068H165.892C167.04 362.067 168.141 361.61 168.954 360.798C169.766 359.986 170.222 358.885 170.224 357.736L170.231 357.625L177.154 303.97C177.139 302.831 176.676 301.744 175.865 300.943C175.055 300.143 173.962 299.693 172.823 299.692H105.248C104.109 299.693 103.016 300.143 102.206 300.943C101.395 301.744 100.933 302.831 100.917 303.97Z" fill="#3F3D56"/>
<path d="M139.036 314.42C159.131 314.42 175.422 311.704 175.422 308.355C175.422 305.006 159.131 302.291 139.036 302.291C118.94 302.291 102.649 305.006 102.649 308.355C102.649 311.704 118.94 314.42 139.036 314.42Z" fill="#F2F2F2"/>
<path d="M137.956 305.433C143.33 292.205 146.057 278.051 145.982 263.773C145.958 249.548 143.257 235.455 138.022 222.228C135.069 214.779 131.291 207.684 126.758 201.076C125.815 199.707 123.562 201.006 124.513 202.388C132.414 213.933 137.978 226.913 140.892 240.596C143.851 254.272 144.189 268.384 141.889 282.186C140.586 289.92 138.426 297.485 135.45 304.742C134.815 306.288 137.328 306.961 137.956 305.433Z" fill="#CCCCCC"/>
<path d="M144.484 244.071C149.175 238.927 148.1 231.752 147.27 225.449C146.812 221.973 146.406 218.216 147.72 214.871C148.71 212.349 150.765 209.852 153.552 209.336C156.361 208.816 158.856 210.606 160.446 212.765C162.22 215.364 163.374 218.336 163.818 221.451C165.058 228.393 163.838 235.55 160.368 241.688C156.898 247.827 151.396 252.563 144.81 255.081C143.264 255.674 143.935 258.188 145.5 257.587C151.963 255.118 157.507 250.718 161.38 244.986C165.546 238.711 167.433 231.196 166.725 223.696C166.137 217.499 163.777 209.364 157.194 207.087C150.45 204.754 145.177 211.529 144.417 217.516C143.826 222.172 145.065 226.738 145.386 231.36C145.649 235.128 145.309 239.314 142.646 242.233C141.521 243.467 143.354 245.31 144.484 244.071Z" fill="#CCCCCC"/>
<path d="M142.718 271.927C136.438 267.78 137.359 258.62 136.063 252.185C135.346 248.621 133.882 245.16 131.055 242.761C128.555 240.64 125.166 239.411 121.935 240.503C115.527 242.67 114.157 250.714 114.496 256.576C114.952 264.031 117.871 271.124 122.794 276.74C127.881 282.579 134.296 286.627 142.068 287.563C143.725 287.763 143.71 285.162 142.068 284.964C129.183 283.413 119.06 271.347 117.318 258.889C116.812 255.792 116.923 252.626 117.647 249.573C118.312 247.081 119.613 244.436 122.041 243.254C124.828 241.896 127.898 243.219 129.942 245.268C132.433 247.766 133.341 251.197 133.856 254.591C134.91 261.537 134.836 269.833 141.406 274.171C142.806 275.096 144.109 272.846 142.718 271.927V271.927Z" fill="#CCCCCC"/>
<path d="M122.377 201.755C115.181 201.755 108.146 199.621 102.162 195.623C96.1786 191.625 91.5149 185.942 88.7609 179.293C86.007 172.644 85.2864 165.328 86.6904 158.27C88.0943 151.212 91.5598 144.729 96.6485 139.64C101.737 134.551 108.221 131.086 115.279 129.682C122.337 128.278 129.653 128.998 136.302 131.752C142.95 134.506 148.633 139.17 152.631 145.154C156.629 151.137 158.763 158.172 158.763 165.369C158.753 175.016 154.916 184.264 148.094 191.086C141.273 197.907 132.024 201.744 122.377 201.755ZM122.377 130.715C115.524 130.715 108.824 132.748 103.125 136.555C97.4262 140.363 92.9846 145.775 90.3617 152.107C87.7389 158.44 87.0526 165.407 88.3897 172.129C89.7269 178.851 93.0273 185.026 97.8737 189.872C102.72 194.719 108.895 198.019 115.617 199.356C122.339 200.693 129.307 200.007 135.639 197.384C141.971 194.762 147.383 190.32 151.191 184.621C154.998 178.922 157.031 172.223 157.031 165.369C157.02 156.181 153.366 147.373 146.87 140.876C140.373 134.38 131.565 130.726 122.377 130.715Z" fill="#3F3D56"/>
<path d="M132.287 147.369C134.711 147.376 137.034 148.342 138.747 150.056C140.461 151.77 141.427 154.092 141.435 156.516V174.808C141.427 177.232 140.461 179.554 138.747 181.268C137.034 182.982 134.711 183.948 132.287 183.955H113.995C111.571 183.948 109.249 182.982 107.535 181.268C105.821 179.554 104.855 177.232 104.848 174.808V156.516C104.855 154.092 105.821 151.77 107.535 150.056C109.249 148.342 111.571 147.376 113.995 147.369H132.287L132.287 147.369ZM132.287 143.71H113.995C110.602 143.72 107.35 145.073 104.951 147.472C102.552 149.871 101.199 153.123 101.189 156.516V174.808C101.199 178.201 102.552 181.453 104.951 183.852C107.35 186.252 110.602 187.604 113.995 187.614H132.287C135.681 187.604 138.932 186.252 141.331 183.852C143.731 181.453 145.083 178.201 145.093 174.808V156.516C145.083 153.123 143.731 149.871 141.331 147.472C138.932 145.073 135.681 143.72 132.287 143.71L132.287 143.71Z" fill="#4C63B6"/>
<path d="M135.031 156.516C134.306 156.514 133.61 156.225 133.098 155.711C132.586 155.197 132.299 154.5 132.299 153.775C132.3 153.049 132.589 152.353 133.102 151.841C133.616 151.328 134.312 151.04 135.037 151.04C135.763 151.04 136.459 151.328 136.972 151.841C137.486 152.353 137.775 153.049 137.775 153.775C137.776 154.5 137.489 155.197 136.977 155.711C136.464 156.225 135.769 156.514 135.043 156.516C135.039 156.516 135.035 156.516 135.031 156.516Z" fill="#4C63B6"/>
<path d="M123.141 158.344C124.589 158.344 126.003 158.774 127.207 159.578C128.41 160.382 129.348 161.525 129.902 162.862C130.456 164.199 130.601 165.67 130.318 167.09C130.036 168.509 129.339 169.813 128.316 170.836C127.292 171.86 125.988 172.557 124.569 172.839C123.15 173.121 121.678 172.976 120.341 172.423C119.004 171.869 117.861 170.931 117.057 169.727C116.253 168.524 115.824 167.109 115.824 165.662C115.824 164.701 116.013 163.75 116.381 162.862C116.749 161.974 117.288 161.167 117.967 160.488C118.647 159.808 119.453 159.269 120.341 158.901C121.229 158.534 122.18 158.344 123.141 158.344ZM123.141 154.686C120.971 154.686 118.849 155.33 117.044 156.536C115.239 157.742 113.832 159.456 113.001 161.462C112.17 163.467 111.953 165.674 112.376 167.803C112.8 169.932 113.845 171.888 115.38 173.423C116.915 174.958 118.871 176.004 121 176.427C123.129 176.851 125.336 176.633 127.342 175.802C129.347 174.972 131.061 173.565 132.268 171.76C133.474 169.955 134.117 167.833 134.117 165.662C134.117 164.221 133.833 162.793 133.282 161.462C132.73 160.13 131.922 158.92 130.903 157.901C129.883 156.882 128.673 156.073 127.342 155.522C126.01 154.97 124.583 154.686 123.141 154.686V154.686Z" fill="#4C63B6"/>
<path d="M330.285 352.598L340.438 349.482L333.251 308.835L318.265 313.434L330.285 352.598Z" fill="#FFB8B8"/>
<path d="M362.914 352.901L331.002 362.694L327.219 350.365L346.801 344.355C350.071 343.352 353.605 343.688 356.627 345.291C359.649 346.894 361.91 349.631 362.914 352.901L362.914 352.901Z" fill="#2F2E41"/>
<path d="M243.653 352.832L254.273 352.831L259.327 311.864L243.65 311.865L243.653 352.832Z" fill="#FFB8B8"/>
<path d="M274.758 362.693L241.377 362.694L241.377 349.797L261.86 349.796C265.281 349.796 268.561 351.155 270.98 353.573C273.399 355.992 274.758 359.272 274.758 362.693Z" fill="#2F2E41"/>
<path d="M242.891 234.077C242.018 233.312 241.324 232.365 240.857 231.303C240.39 230.24 240.161 229.088 240.188 227.928C240.214 226.768 240.494 225.628 241.009 224.588C241.523 223.548 242.26 222.633 243.166 221.909L251.401 118.213L268.148 122.397L254.739 223.549C255.856 225.152 256.345 227.109 256.115 229.05C255.885 230.99 254.951 232.778 253.491 234.076C252.03 235.373 250.145 236.09 248.191 236.09C246.237 236.091 244.351 235.374 242.891 234.077Z" fill="#FFB8B8"/>
<path d="M276.427 77.9939C288.179 77.9939 297.705 68.4674 297.705 56.7158C297.705 44.9642 288.179 35.4377 276.427 35.4377C264.675 35.4377 255.149 44.9642 255.149 56.7158C255.149 68.4674 264.675 77.9939 276.427 77.9939Z" fill="#FFB8B8"/>
<path d="M257.925 115.023C253.124 108.432 252.976 99.3539 258.148 93.0493C261.523 88.9349 267.168 85.6425 276.594 85.6425C301.718 85.6425 311.248 105.568 311.248 105.568C311.248 105.568 321.644 124.628 315.579 141.954C309.515 159.281 309.515 161.014 309.515 161.014L269.663 157.548C269.663 157.548 276.386 140.368 257.925 115.023Z" fill="#CCCCCC"/>
<path d="M245.636 132.271L254.221 104.183C254.796 102.303 255.777 100.571 257.095 99.1113C258.413 97.6514 260.035 96.4987 261.847 95.7347C263.66 94.9708 265.617 94.6141 267.583 94.69C269.548 94.7659 271.472 95.2725 273.22 96.174C276.253 97.7446 278.574 100.41 279.715 103.629C280.855 106.848 280.728 110.38 279.361 113.509L268.446 138.366L245.636 132.271Z" fill="#CCCCCC"/>
<path d="M308.649 156.682L342.436 331.682L324.243 336.88L280.06 221.657L260.134 339.479L241.075 342.078C241.075 342.078 232.714 186.185 269.664 157.549L308.649 156.682Z" fill="#2F2E41"/>
<path d="M313.064 169.382C310.228 169.383 307.462 168.505 305.146 166.869C302.831 165.232 301.079 162.918 300.134 160.245L290.377 133.099L305.524 125.9L313.838 151.281L356.196 149.227C356.422 148.868 356.674 148.524 356.948 148.199C357.774 147.229 358.787 146.435 359.925 145.864C361.064 145.292 362.306 144.954 363.577 144.871C364.848 144.787 366.124 144.96 367.327 145.377C368.531 145.795 369.639 146.45 370.585 147.304C372.368 148.949 373.465 151.206 373.659 153.624C373.852 156.042 373.127 158.445 371.627 160.352C370.829 161.345 369.839 162.168 368.717 162.772C367.595 163.375 366.363 163.748 365.095 163.868C363.826 163.987 362.546 163.851 361.331 163.467C360.116 163.083 358.991 162.46 358.021 161.633C357.784 161.43 357.557 161.215 357.343 160.988L315.766 169.119C314.876 169.293 313.971 169.381 313.064 169.382Z" fill="#FFB8B8"/>
<path d="M284.914 108.084C284.684 106.131 284.886 104.151 285.505 102.285C286.125 100.418 287.147 98.7104 288.499 97.2823C289.851 95.8541 291.5 94.7404 293.33 94.0198C295.16 93.2992 297.126 92.9894 299.089 93.1121C302.497 93.3309 305.694 94.8376 308.033 97.3266C310.371 99.8156 311.675 103.101 311.681 106.516V133.662L288.345 137.253L284.914 108.084Z" fill="#CCCCCC"/>
<path d="M281.107 78.1869C277.913 78.173 275.449 74.8106 275.592 71.6201C275.736 68.4297 277.878 65.6226 280.46 63.7426C283.042 61.8626 286.069 60.7174 288.948 59.3352C291.827 57.953 294.681 56.2289 296.459 53.5756C297.533 51.839 298.174 49.8699 298.328 47.834C298.482 45.7981 298.145 43.7548 297.345 41.8763C295.691 38.119 292.851 35.0077 289.26 33.0187C283.925 29.896 277.61 28.8975 271.572 30.2221C265.534 31.5467 260.217 35.0972 256.679 40.1663L253.034 50.0927C249.319 54.5596 248.73 61.1933 251.013 66.5355C253.297 71.8776 258.159 75.8969 263.646 77.8077C269.212 79.5966 275.171 79.7752 280.835 78.3231" fill="#2F2E41"/>
<path d="M261.66 45.1272C260.093 42.6154 257.377 41.0179 254.568 40.0804C251.315 38.9943 247.855 38.6737 244.458 39.1437C241.06 39.6136 237.817 40.8613 234.981 42.7898C232.144 44.7182 229.792 47.2752 228.105 50.2618C226.419 53.2484 225.444 56.5839 225.258 60.0086C224.961 65.479 226.673 70.8284 227.68 76.2136C228.686 81.5988 228.887 87.5467 225.917 92.1507C223.656 95.6575 219.884 97.8654 216.162 99.7507C213.059 101.322 209.703 102.797 206.239 102.483C202.776 102.17 199.295 99.4269 199.387 95.9503C198.227 98.4431 197.444 101.094 197.063 103.817C196.82 106.551 197.494 109.501 199.468 111.408C202.339 114.179 206.886 113.976 210.831 113.378C219.37 112.084 228.017 109.657 234.764 104.264C241.51 98.8712 245.987 89.9912 244.21 81.5389C243.468 78.0082 241.724 74.785 240.315 71.4637C238.905 68.1424 237.805 64.5096 238.452 60.9602C238.836 59.1316 239.616 57.4094 240.737 55.9152C241.859 54.421 243.295 53.1912 244.943 52.3126C248.278 50.5788 252.094 50.0002 255.792 50.6675C258.217 51.0654 261.245 51.6833 262.683 49.6908C263.064 49.0596 263.259 48.3333 263.245 47.5961C263.23 46.8589 263.008 46.1408 262.602 45.5249C261.772 44.3066 260.716 43.2596 259.49 42.4411" fill="#2F2E41"/>
<path d="M469.024 11.205C472.119 11.205 474.627 8.69668 474.627 5.6025C474.627 2.50833 472.119 0 469.024 0C465.93 0 463.422 2.50833 463.422 5.6025C463.422 8.69668 465.93 11.205 469.024 11.205Z" fill="#F2F2F2"/>
<path d="M469.024 33.5334C472.119 33.5334 474.627 31.025 474.627 27.9309C474.627 24.8367 472.119 22.3284 469.024 22.3284C465.93 22.3284 463.422 24.8367 463.422 27.9309C463.422 31.025 465.93 33.5334 469.024 33.5334Z" fill="#F2F2F2"/>
<path d="M469.024 55.8617C472.119 55.8617 474.627 53.3534 474.627 50.2592C474.627 47.165 472.119 44.6567 469.024 44.6567C465.93 44.6567 463.422 47.165 463.422 50.2592C463.422 53.3534 465.93 55.8617 469.024 55.8617Z" fill="#F2F2F2"/>
<path d="M469.024 78.1901C472.119 78.1901 474.627 75.6818 474.627 72.5876C474.627 69.4934 472.119 66.9851 469.024 66.9851C465.93 66.9851 463.422 69.4934 463.422 72.5876C463.422 75.6818 465.93 78.1901 469.024 78.1901Z" fill="#F2F2F2"/>
<path d="M492.416 11.205C495.51 11.205 498.018 8.69668 498.018 5.6025C498.018 2.50833 495.51 0 492.416 0C489.321 0 486.813 2.50833 486.813 5.6025C486.813 8.69668 489.321 11.205 492.416 11.205Z" fill="#F2F2F2"/>
<path d="M492.416 33.5334C495.51 33.5334 498.018 31.025 498.018 27.9309C498.018 24.8367 495.51 22.3284 492.416 22.3284C489.321 22.3284 486.813 24.8367 486.813 27.9309C486.813 31.025 489.321 33.5334 492.416 33.5334Z" fill="#F2F2F2"/>
<path d="M492.416 55.8617C495.51 55.8617 498.018 53.3534 498.018 50.2592C498.018 47.165 495.51 44.6567 492.416 44.6567C489.321 44.6567 486.813 47.165 486.813 50.2592C486.813 53.3534 489.321 55.8617 492.416 55.8617Z" fill="#F2F2F2"/>
<path d="M492.416 78.1901C495.51 78.1901 498.018 75.6818 498.018 72.5876C498.018 69.4934 495.51 66.9851 492.416 66.9851C489.321 66.9851 486.813 69.4934 486.813 72.5876C486.813 75.6818 489.321 78.1901 492.416 78.1901Z" fill="#F2F2F2"/>
<path d="M515.807 11.205C518.901 11.205 521.409 8.69668 521.409 5.6025C521.409 2.50833 518.901 0 515.807 0C512.712 0 510.204 2.50833 510.204 5.6025C510.204 8.69668 512.712 11.205 515.807 11.205Z" fill="#F2F2F2"/>
<path d="M515.807 33.5334C518.901 33.5334 521.409 31.025 521.409 27.9309C521.409 24.8367 518.901 22.3284 515.807 22.3284C512.712 22.3284 510.204 24.8367 510.204 27.9309C510.204 31.025 512.712 33.5334 515.807 33.5334Z" fill="#F2F2F2"/>
<path d="M515.807 55.8617C518.901 55.8617 521.409 53.3534 521.409 50.2592C521.409 47.165 518.901 44.6567 515.807 44.6567C512.712 44.6567 510.204 47.165 510.204 50.2592C510.204 53.3534 512.712 55.8617 515.807 55.8617Z" fill="#F2F2F2"/>
<path d="M515.807 78.1901C518.901 78.1901 521.409 75.6818 521.409 72.5876C521.409 69.4934 518.901 66.9851 515.807 66.9851C512.712 66.9851 510.204 69.4934 510.204 72.5876C510.204 75.6818 512.712 78.1901 515.807 78.1901Z" fill="#F2F2F2"/>
<path d="M539.198 11.205C542.292 11.205 544.8 8.69668 544.8 5.6025C544.8 2.50833 542.292 0 539.198 0C536.104 0 533.595 2.50833 533.595 5.6025C533.595 8.69668 536.104 11.205 539.198 11.205Z" fill="#F2F2F2"/>
<path d="M539.198 33.5334C542.292 33.5334 544.8 31.025 544.8 27.9309C544.8 24.8367 542.292 22.3284 539.198 22.3284C536.104 22.3284 533.595 24.8367 533.595 27.9309C533.595 31.025 536.104 33.5334 539.198 33.5334Z" fill="#F2F2F2"/>
<path d="M539.198 55.8617C542.292 55.8617 544.8 53.3534 544.8 50.2592C544.8 47.165 542.292 44.6567 539.198 44.6567C536.104 44.6567 533.595 47.165 533.595 50.2592C533.595 53.3534 536.104 55.8617 539.198 55.8617Z" fill="#F2F2F2"/>
<path d="M539.198 78.1901C542.292 78.1901 544.8 75.6818 544.8 72.5876C544.8 69.4934 542.292 66.9851 539.198 66.9851C536.104 66.9851 533.595 69.4934 533.595 72.5876C533.595 75.6818 536.104 78.1901 539.198 78.1901Z" fill="#F2F2F2"/>
<path d="M562.589 11.205C565.683 11.205 568.191 8.69668 568.191 5.6025C568.191 2.50833 565.683 0 562.589 0C559.495 0 556.986 2.50833 556.986 5.6025C556.986 8.69668 559.495 11.205 562.589 11.205Z" fill="#F2F2F2"/>
<path d="M562.589 33.5334C565.683 33.5334 568.191 31.025 568.191 27.9309C568.191 24.8367 565.683 22.3284 562.589 22.3284C559.495 22.3284 556.986 24.8367 556.986 27.9309C556.986 31.025 559.495 33.5334 562.589 33.5334Z" fill="#F2F2F2"/>
<path d="M562.589 55.8617C565.683 55.8617 568.191 53.3534 568.191 50.2592C568.191 47.165 565.683 44.6567 562.589 44.6567C559.495 44.6567 556.986 47.165 556.986 50.2592C556.986 53.3534 559.495 55.8617 562.589 55.8617Z" fill="#F2F2F2"/>
<path d="M562.589 78.1901C565.683 78.1901 568.191 75.6818 568.191 72.5876C568.191 69.4934 565.683 66.9851 562.589 66.9851C559.495 66.9851 556.986 69.4934 556.986 72.5876C556.986 75.6818 559.495 78.1901 562.589 78.1901Z" fill="#F2F2F2"/>
<path d="M585.98 11.205C589.074 11.205 591.582 8.69668 591.582 5.6025C591.582 2.50833 589.074 0 585.98 0C582.886 0 580.377 2.50833 580.377 5.6025C580.377 8.69668 582.886 11.205 585.98 11.205Z" fill="#F2F2F2"/>
<path d="M585.98 33.5334C589.074 33.5334 591.582 31.025 591.582 27.9309C591.582 24.8367 589.074 22.3284 585.98 22.3284C582.886 22.3284 580.377 24.8367 580.377 27.9309C580.377 31.025 582.886 33.5334 585.98 33.5334Z" fill="#F2F2F2"/>
<path d="M585.98 55.8617C589.074 55.8617 591.582 53.3534 591.582 50.2592C591.582 47.165 589.074 44.6567 585.98 44.6567C582.886 44.6567 580.377 47.165 580.377 50.2592C580.377 53.3534 582.886 55.8617 585.98 55.8617Z" fill="#F2F2F2"/>
<path d="M585.98 78.1901C589.074 78.1901 591.582 75.6818 591.582 72.5876C591.582 69.4934 589.074 66.9851 585.98 66.9851C582.886 66.9851 580.377 69.4934 580.377 72.5876C580.377 75.6818 582.886 78.1901 585.98 78.1901Z" fill="#F2F2F2"/>
</g>
<defs>
<clipPath id="clip0_290_1165">
<rect width="700" height="363.801" fill="white"/>
</clipPath>
</defs>
</svg>
